<svg width="71" height="71" viewBox="0 0 71 71" fill="none" xmlns="http://www.w3.org/2000/svg">
<path d="M16.4544 40.8231C18.6128 43.3094 20.7222 41.4188 23.6515 38.9038C26.5864 36.3833 29.2273 34.1978 27.0705 31.7095C24.908 29.218 20.7839 29.2452 17.85 31.7615C14.9199 34.2775 14.293 38.3342 16.4544 40.8231ZM12.455 29.8216C13.846 31.4253 15.7898 32.0259 16.7977 31.1626C17.8006 30.2993 17.4898 28.297 16.0949 26.6958C14.7024 25.0908 12.7591 24.4906 11.754 25.3546C10.7481 26.2155 11.0604 28.219 12.455 29.8216ZM9.72905 35.7717C11.4851 36.4453 13.2415 36.1702 13.6489 35.1482C14.0556 34.1291 12.9599 32.7543 11.2033 32.0784C9.44431 31.4023 7.69081 31.68 7.28131 32.6984C6.87563 33.7184 7.96859 35.0944 9.72905 35.7717ZM18.8153 25.7462C19.3901 27.5277 20.7078 28.6976 21.7582 28.3535C22.8059 28.0104 23.1879 26.286 22.6112 24.5037C22.0358 22.72 20.718 21.5501 19.671 21.8954C18.6219 22.239 18.239 23.9626 18.8153 25.7462Z" fill="#ED2E7C"/>
<path d="M26.1624 24.3601C25.2602 24.3833 24.5487 25.6501 24.5732 27.1896C24.5978 28.7292 25.349 29.9585 26.2512 29.9353C27.1534 29.9122 27.8649 28.6454 27.8403 27.1058C27.8158 25.5663 27.0646 24.337 26.1624 24.3601Z" fill="#ED2E7C"/>
<path d="M50.596 23.0181C51.5326 26.1736 48.8046 26.9346 45.1084 28.0509C41.4038 29.1684 38.1335 30.2192 37.1997 27.0647C36.2596 23.9032 38.4986 20.4415 42.1997 19.3225C45.8974 18.2073 49.6588 19.8576 50.596 23.0181Z" fill="#2A8CF5"/>
<path d="M42.8372 16.9216C44.182 16.8783 45.2388 15.365 45.1976 13.5415C45.1564 11.7181 44.0327 10.2751 42.6879 10.3184C41.3431 10.3618 40.2864 11.8751 40.3276 13.6985C40.3688 15.522 41.4924 16.965 42.8372 16.9216Z" fill="#2A8CF5"/>
<path d="M38.252 18.5246C39.5602 17.9039 39.9895 16.0674 39.2108 14.4228C38.4322 12.7782 36.7404 11.9481 35.4322 12.5689C34.124 13.1896 33.6947 15.026 34.4734 16.6707C35.252 18.3153 36.9438 19.1453 38.252 18.5246Z" fill="#2A8CF5"/>
<path d="M34.2504 22.917C35.4103 22.2291 35.5963 20.4038 34.6657 18.84C33.7352 17.2762 32.0406 16.5662 30.8807 17.2541C29.7208 17.942 29.5349 19.7674 30.4654 21.3311C31.3959 22.8949 33.0906 23.605 34.2504 22.917Z" fill="#2A8CF5"/>
<path d="M48.5842 18.1928C49.9236 18.2118 51.043 16.8544 51.0844 15.1609C51.1259 13.4673 50.0738 12.0791 48.7344 12.0601C47.3951 12.041 46.2757 13.3985 46.2342 15.092C46.1928 16.7855 47.2449 18.1738 48.5842 18.1928Z" fill="#2A8CF5"/>
<path d="M42.0536 52.5859C44.0156 55.2283 41.7 56.8602 38.5916 59.1513C35.4756 61.4463 32.7469 63.5325 30.7877 60.8901C28.8204 58.2433 29.7519 54.2445 32.864 51.9493C35.9742 49.6588 40.0891 49.939 42.0536 52.5859Z" fill="#2A8CF5"/>
<path d="M32.6459 49.4842C33.9008 48.9907 34.3816 47.2163 33.7198 45.5211C33.0581 43.8258 31.5043 42.8515 30.2495 43.345C28.9946 43.8385 28.5138 45.6129 29.1755 47.3082C29.8373 49.0034 31.391 49.9777 32.6459 49.4842Z" fill="#2A8CF5"/>
<path d="M28.864 52.5308C29.8871 51.5084 29.6652 49.6425 28.3683 48.3631C27.0713 47.0838 25.1906 46.8754 24.1675 47.8978C23.1443 48.9202 23.3663 50.7861 24.6632 52.0655C25.9602 53.3448 27.8409 53.5531 28.864 52.5308Z" fill="#2A8CF5"/>
<path d="M26.5866 57.9954C27.4467 56.96 26.9987 55.1864 25.586 54.034C24.1734 52.8816 22.3309 52.7867 21.4707 53.8221C20.6106 54.8575 21.0585 56.631 22.4712 57.7835C23.8839 58.9359 25.7264 59.0308 26.5866 57.9954Z" fill="#2A8CF5"/>
<path d="M38.5058 48.7404C39.7768 48.3073 40.37 46.6579 39.8307 45.0566C39.2914 43.4552 37.8239 42.5082 36.5529 42.9414C35.2818 43.3746 34.6887 45.0239 35.2279 46.6253C35.7672 48.2267 37.2348 49.1736 38.5058 48.7404Z" fill="#2A8CF5"/>
<path d="M45.8893 49.089C46.4475 52.3353 49.224 51.7762 53.0226 51.0952C56.8289 50.4122 60.2112 49.869 59.6555 46.6219C59.0964 43.369 55.5627 41.293 51.7595 41.9729C47.9597 42.6543 45.3298 45.839 45.8893 49.089ZM48.1569 37.5508C48.5159 39.6441 49.8647 41.1524 51.1707 40.9199C52.4723 40.6847 53.2411 38.7971 52.8773 36.704C52.5177 34.6089 51.1691 33.1012 49.8652 33.3358C48.5623 33.5673 47.7942 35.4567 48.1569 37.5508ZM42.758 41.3024C43.9088 42.7781 45.5499 43.4346 46.4253 42.7594C47.2986 42.0862 47.0735 40.3409 45.9232 38.8629C44.7712 37.3835 43.1313 36.7307 42.2559 37.4019C41.383 38.0763 41.6053 39.8212 42.758 41.3024ZM55.6894 37.2687C55.26 39.1001 55.7805 40.7813 56.8547 41.0188C57.926 41.2559 59.1424 39.9609 59.5706 38.1279C60.0005 36.2944 59.48 34.6131 58.4081 34.3783C57.3354 34.141 56.1185 35.4348 55.6894 37.2687Z" fill="#ED2E7C"/>
<path d="M62.6754 39.8117C61.8935 39.3724 60.6321 40.1044 59.8581 41.4466C59.084 42.7889 59.0904 44.2331 59.8723 44.6723C60.6542 45.1116 61.9156 44.3796 62.6896 43.0374C63.4637 41.6952 63.4573 40.251 62.6754 39.8117Z" fill="#ED2E7C"/>
</svg>
